<?xml version="1.0" encoding="UTF-8"?>
<svg id="Layer_1" data-name="Layer 1" xmlns="http://www.w3.org/2000/svg" viewBox="0 0 638.79 201.6">
  <defs>
    <style>
      .cls-1 {
        fill: #0b4e91;
      }
    </style>
  </defs>
  <g>
    <path class="cls-1" d="M252.19,73.23c13.39,0,23.83,2.51,31.31,7.91,7.48,5.79,12.6,14.48,12.6,26.83,0,25.87-22.45,38.22-40.77,38.22-2.17,0-4.14-.39-5.71-.77l-13.19-3.09v35.52c0,15.06,1.77,16.22,17.33,18.53v2.32h-48.45v-2.32c15.75-2.12,17.13-3.86,17.13-19.11v-82.62c0-16.02-1.18-16.99-16.74-19.11v-2.32h46.48ZM236.43,138.67c2.76,1.16,8.27,1.93,13.98,1.93,13.39,0,29.93-6.18,29.93-32.43,0-21.43-13.2-31.08-30.72-31.08-5.32,0-9.65.97-10.83,2.12-1.58,1.35-2.36,4.25-2.36,11.58v47.87Z"/>
    <path class="cls-1" d="M440.07,75.55c-15.95,1.93-17.33,4.25-17.33,21.24v78.76c0,17.76,1.77,18.72,17.33,20.85v2.32h-48.45v-2.32c15.95-2.12,17.13-4.63,17.13-20.85v-42.28h-69.52v42.28c0,16.6,1.77,18.72,17.33,20.85v2.32h-48.45v-2.32c15.75-1.93,17.13-4.25,17.13-20.85v-78.76c0-18.34-1.18-18.92-17.13-21.24v-2.32h48.45v2.32c-15.95,2.12-17.33,3.67-17.33,21.24v31.08h69.52v-31.08c0-17.37-.79-19.5-17.13-21.24v-2.32h48.45v2.32Z"/>
    <path class="cls-1" d="M560.41,75.55c-13.59,1.93-14.77,5.41-19.89,13.9-10.04,17.18-17.92,31.47-28.75,52.31-.98,1.93-1.57,4.25-1.57,6.76l-.2,28.76c-.2,15.06,1.38,16.6,18.12,19.11v2.32h-49.63v-2.32c16.35-2.51,17.33-4.25,17.33-19.11v-27.8c0-2.9-.59-4.83-2.36-8.3-2.36-5.21-18.91-36.68-25.6-48.45-7.88-14.09-9.45-15.64-21.27-17.18v-2.32h43.13v2.32c-13.39,1.74-12.8,4.44-10.24,9.65,9.26,17.76,23.63,44.4,28.36,53.47,6.1-11.58,20.28-38.61,25.6-50,4.14-8.49,3.54-10.81-11.42-13.13v-2.32h38.4v2.32Z"/>
    <path class="cls-1" d="M631.51,99.1c-3.54-13.51-9.45-24.52-27.37-24.52-14.77,0-21.47,10.81-21.47,22.2,0,14.86,8.47,20.85,23.83,29.73,14.97,8.69,32.3,18.34,32.3,39.19s-17.33,35.91-40.37,35.91c-11.03,0-22.06-3.28-27.97-5.6-1.18-5.21-4.14-22.2-4.53-25.87l2.76-.58c3.35,11.78,12.21,27.99,32.5,27.99,16.74,0,23.83-12.93,23.83-25.87,0-14.86-10.24-22.97-24.03-31.27-14.77-8.88-30.92-18.15-30.92-37.64,0-18.15,15.16-32.24,37.42-32.24,12.01,0,19.5,2.32,23.83,3.09.79,6.76,1.77,15.83,3.15,24.9l-2.95.58Z"/>
  </g>
  <path class="cls-1" d="M183.04,65.67h-37.91s5.05-59.92-37.53-59-59.56,62.83-63.79,84.39-15.12,96.75,31.24,102.19,63.09-65.3,67.12-90.3c0,0,5.24-24.79,41.72-26,0,0,5.17,74.41-56.82,110,0,0-41.9,28.99-92.41,2.01,0,0-44.94-25.29-32.47-91.8C2.19,97.17,15.3,5.08,106.43.28c0,0,64.64-8.32,76.61,65.39Z"/>
</svg>